<svg width="120" height="120" viewBox="0 0 120 120" fill="none" xmlns="http://www.w3.org/2000/svg">
<mask id="mask0_351_203" style="mask-type:alpha" maskUnits="userSpaceOnUse" x="30" y="26" width="63" height="63">
<path d="M61.5 26C78.897 26 93 40.103 93 57.5C93 74.897 78.897 89 61.5 89C44.103 89 30 74.897 30 57.5C30 40.103 44.103 26 61.5 26ZM61.5 77.9068C72.7703 77.9068 81.9068 68.7703 81.9068 57.5C81.9068 46.2297 72.7703 37.0932 61.5 37.0932C50.2297 37.0932 41.0932 46.2297 41.0932 57.5C41.0932 68.7703 50.2297 77.9068 61.5 77.9068Z" fill="#C4C4C4"/>
</mask>
<g mask="url(#mask0_351_203)">
<rect x="19" y="100" width="80" height="80" transform="rotate(-90 19 100)" fill="url(#paint0_angular_351_203)"/>
<circle cx="87.5" cy="59.5" r="5.5" transform="rotate(-90 87.5 59.5)" fill="black"/>
</g>
<defs>
<radialGradient id="paint0_angular_351_203" cx="0" cy="0" r="1" gradientUnits="userSpaceOnUse" gradientTransform="translate(59 140) rotate(90) scale(40)">
<stop stop-color="#1E1E1E"/>
<stop offset="1" stop-opacity="0.01"/>
</radialGradient>
</defs>
</svg>
